<?xml version="1.0" standalone="no"?>
<!DOCTYPE svg PUBLIC "-//W3C//DTD SVG 20010904//EN"
 "http://www.w3.org/TR/2001/REC-SVG-20010904/DTD/svg10.dtd">
<svg version="1.0" xmlns="http://www.w3.org/2000/svg"
 width="899.000000pt" height="1599.000000pt" viewBox="0 0 899.000000 1599.000000"
 preserveAspectRatio="xMidYMid meet">
<metadata>
Created by potrace 1.16, written by Peter Selinger 2001-2019
</metadata>
<g transform="translate(0.000000,1599.000000) scale(0.100000,-0.100000)"
fill="#000000" stroke="none">
<path d="M0 10999 l0 -4990 38 -15 c20 -9 69 -31 108 -50 38 -19 76 -34 82
-34 7 0 12 -4 12 -10 0 -5 7 -10 15 -10 8 0 79 -31 157 -69 148 -71 218 -103
303 -141 55 -24 141 -66 165 -79 44 -25 110 -51 134 -53 14 -1 26 -7 26 -13 1
-8 187 -105 204 -105 3 0 61 -27 128 -60 68 -33 129 -60 136 -60 6 0 12 -4 12
-10 0 -5 5 -10 12 -10 6 0 36 -12 67 -26 31 -15 94 -45 141 -66 47 -22 130
-62 185 -88 110 -52 234 -110 307 -144 26 -11 48 -25 48 -29 0 -5 -3 -7 -7 -5
-5 2 -32 12 -60 23 -29 11 -53 23 -53 27 0 5 -7 8 -16 8 -9 0 -37 11 -63 24
-94 49 -141 67 -152 60 -7 -4 -9 -3 -6 3 4 7 -12 19 -38 30 -25 10 -45 21 -45
26 0 4 -7 7 -16 7 -9 0 -28 7 -42 15 -40 22 -119 55 -131 55 -6 0 -11 5 -11
10 0 6 -6 10 -12 10 -7 0 -69 28 -138 61 -69 34 -129 62 -135 63 -5 1 -36 14
-68 29 -32 15 -64 27 -72 27 -8 0 -15 5 -15 10 0 6 -8 13 -17 17 -10 3 -56 24
-101 45 -47 22 -92 38 -103 35 -12 -3 -19 0 -19 9 0 8 -7 14 -15 14 -8 0 -15
4 -15 9 0 5 -15 13 -32 16 -18 4 -35 11 -38 14 -8 11 -98 51 -114 51 -7 0 -19
7 -26 15 -7 8 -30 20 -51 27 -22 6 -39 15 -39 20 0 4 -7 8 -15 8 -9 0 -26 7
-39 15 -13 9 -37 17 -54 18 -16 1 -28 5 -26 8 2 4 -3 12 -11 19 -8 7 -15 10
-15 7 0 -3 -30 10 -66 28 -37 19 -71 32 -75 29 -5 -3 -9 0 -9 7 0 7 -3 9 -6 6
-4 -3 -18 3 -32 13 -13 11 -30 20 -36 20 -11 0 -95 39 -187 86 -26 13 -50 24
-53 24 -3 0 -6 -1345 -6 -2990 l0 -2990 4495 0 4495 0 0 888 0 887 -48 22
c-26 12 -81 38 -122 56 -41 19 -92 42 -113 51 -21 10 -36 20 -34 23 3 2 71
-25 151 -61 79 -36 150 -66 155 -66 8 0 11 2114 11 7095 l0 7095 -4495 0
-4495 0 0 -4991z m4334 1687 c7 3 114 6 239 7 l226 2 3 -70 3 -70 60 -7 c211
-24 560 -57 608 -58 25 0 27 -3 27 -42 0 -53 -11 -72 -36 -64 -28 8 -334 34
-524 43 -245 12 -1103 8 -1354 -7 -230 -13 -236 -12 -236 30 0 32 18 38 155
49 146 13 213 19 280 26 55 6 423 37 460 39 47 2 55 12 55 70 0 49 10 81 18
57 2 -5 9 -8 16 -5z m-2600 -269 c3 -12 10 -123 16 -247 6 -123 12 -225 13
-226 1 -1 262 -5 580 -9 l577 -7 0 111 c0 61 3 111 7 111 4 0 41 -7 83 -15
127 -24 699 -65 918 -65 42 0 52 -3 53 -17 1 -16 2 -15 6 1 4 15 7 16 14 5 6
-10 9 -10 9 -1 0 25 20 11 21 -15 l2 -28 4 28 c5 30 22 37 24 10 1 -17 2 -17
6 -1 3 13 14 17 39 16 27 -1 34 -6 35 -22 2 -20 2 -19 6 2 2 12 9 22 14 22 5
0 9 -10 10 -22 1 -21 1 -22 7 -3 5 14 17 21 40 22 27 1 32 -2 33 -20 1 -21 1
-21 7 -2 7 21 42 31 42 11 0 -6 5 -4 10 4 9 13 11 13 20 0 5 -8 10 -10 10 -5
0 6 16 11 35 11 31 1 35 -2 36 -25 l2 -26 4 26 c4 24 8 26 51 24 47 -1 47 -2
53 -41 l6 -39 2 41 c1 52 7 54 166 54 355 1 1011 76 1060 121 5 5 17 9 27 9
11 0 18 7 18 19 0 28 7 30 83 18 l68 -10 -7 -161 -7 -161 626 1 c345 0 629 2
631 5 3 2 12 103 21 224 8 121 18 232 21 248 l6 27 296 -2 c258 -3 297 -5 294
-18 -2 -8 -10 -91 -18 -185 -7 -93 -20 -244 -29 -335 -8 -91 -20 -230 -26
-310 -7 -80 -16 -149 -20 -154 -8 -9 -422 -9 -609 0 -58 3 -236 6 -396 8 -160
2 -296 6 -302 10 -7 4 -12 4 -12 -1 0 -14 -61 -7 -71 8 -6 10 -9 10 -9 2 0 -8
-14 -13 -35 -13 -21 0 -35 5 -36 13 0 10 -2 10 -6 0 -7 -20 -43 -16 -44 5 -1
16 -2 16 -6 0 -6 -25 -43 -23 -43 1 0 11 -5 23 -10 26 -7 4 -9 -3 -6 -19 5
-26 -8 -36 -17 -13 -3 6 -6 3 -7 -8 -1 -20 -1 -20 -15 -1 -11 15 -15 16 -15 5
0 -8 -9 -15 -20 -15 -11 0 -20 7 -20 16 0 13 -1 13 -10 0 -9 -13 -11 -13 -20
0 -8 12 -10 12 -10 -5 0 -15 -2 -17 -9 -6 -5 7 -14 10 -20 7 -6 -4 -11 -1 -11
6 0 10 -2 10 -9 -1 -5 -7 -13 -11 -18 -8 -6 4 -17 1 -26 -6 -13 -10 -17 -42
-23 -159 -4 -82 -10 -148 -13 -149 -31 -4 -50 -7 -76 -13 -26 -5 -86 -13 -237
-32 -24 -3 -108 -14 -188 -24 -80 -10 -165 -21 -190 -25 -25 -3 -117 -14 -205
-25 -88 -12 -180 -23 -205 -26 -25 -3 -56 -8 -70 -10 -131 -25 -383 -50 -421
-42 -19 5 -59 11 -89 14 -30 3 -62 8 -70 11 -20 8 -27 9 -85 17 -27 3 -61 8
-75 11 -14 3 -38 7 -55 10 -16 2 -39 6 -50 9 -12 2 -48 7 -80 11 -33 4 -76 11
-95 16 -19 4 -53 11 -75 14 -22 3 -47 7 -55 8 -8 2 -37 7 -65 11 -27 4 -99 16
-158 27 -60 10 -130 21 -155 24 -26 3 -60 9 -77 12 -16 4 -32 7 -35 8 -3 1
-31 5 -63 9 -73 10 -77 18 -77 171 0 62 -2 120 -6 128 -3 10 -17 13 -45 11
-22 -1 -39 2 -39 8 0 6 -6 6 -15 -2 -12 -10 -15 -10 -15 0 0 10 -3 10 -15 0
-12 -10 -15 -10 -15 1 0 9 -3 10 -8 3 -7 -11 -72 -15 -72 -4 0 7 -67 6 -75 -2
-3 -3 -23 -2 -45 2 -27 5 -40 4 -41 -4 0 -8 -2 -8 -5 1 -3 6 -15 8 -29 5 -14
-4 -315 -6 -669 -4 -602 2 -645 3 -650 20 -6 21 -13 116 -22 282 -3 69 -8 132
-9 140 -2 8 -6 76 -9 150 -4 74 -9 160 -11 190 -3 30 -7 88 -10 127 l-6 73
263 2 c145 2 280 4 301 5 31 1 38 -3 41 -20z m1084 -2035 c24 -34 13 -62 -23
-62 -14 0 -25 -4 -25 -9 0 -5 9 -7 20 -4 11 3 20 3 20 1 0 -3 -18 -41 -40 -84
-39 -79 -41 -80 -74 -76 -27 3 -33 7 -29 23 3 11 14 19 27 19 11 0 28 5 36 11
12 8 9 9 -12 5 -16 -4 -28 -4 -28 -1 0 12 54 120 61 123 5 2 9 10 9 18 0 8 5
14 10 14 6 0 10 -7 10 -15 0 -8 7 -15 15 -15 8 0 15 9 15 20 0 13 -7 20 -20
20 -22 0 -23 1 -14 24 9 23 20 20 42 -12z m-557 -1273 c4 -57 7 -156 8 -219 1
-63 4 -131 7 -151 6 -34 9 -37 46 -42 28 -4 50 0 72 12 29 17 31 22 31 70 0
39 4 55 18 62 13 8 17 23 17 63 0 41 4 55 17 60 29 12 34 -8 22 -95 -6 -46
-13 -114 -16 -151 l-5 -67 38 -10 c21 -6 40 -9 42 -7 3 4 26 154 54 366 13 93
14 95 43 101 17 4 62 7 100 8 70 0 119 -10 380 -79 66 -18 147 -39 180 -47 33
-9 65 -20 70 -25 6 -5 18 -48 27 -96 9 -48 31 -154 48 -237 17 -82 35 -170 40
-195 8 -44 64 -318 99 -490 16 -76 20 -85 39 -83 12 2 113 21 224 44 112 23
219 41 238 40 19 -1 66 -13 105 -27 38 -14 99 -34 135 -46 l65 -20 104 -138
c57 -76 119 -153 137 -171 28 -27 34 -41 34 -73 0 -87 40 -241 98 -379 15 -36
14 -41 -7 -90 -65 -146 -71 -167 -77 -254 l-7 -89 -75 -39 c-41 -22 -107 -61
-147 -87 -39 -26 -94 -52 -121 -59 -61 -15 -66 -19 -79 -72 l-10 -42 -61 -3
-61 -3 -27 -187 c-15 -103 -33 -232 -41 -287 -15 -95 -26 -171 -62 -420 -14
-102 -14 -147 4 -625 11 -283 18 -520 15 -527 -2 -6 -16 -14 -30 -18 -49 -10
-102 -125 -59 -125 7 0 57 -23 112 -50 55 -28 87 -48 70 -45 -16 4 -31 11 -33
16 -2 5 -7 9 -12 9 -5 0 -43 16 -84 35 -42 19 -79 35 -84 35 -4 0 -26 -36 -50
-80 -44 -82 -54 -90 -81 -67 -9 7 -36 22 -61 32 -25 11 -47 22 -50 25 -3 3
-34 21 -70 39 -102 53 -101 49 -56 134 21 39 58 107 82 149 l43 77 -14 323
c-13 284 -16 324 -32 335 -9 7 -24 13 -33 13 -9 0 -24 8 -32 18 -14 15 -14 30
3 152 11 74 28 198 39 275 11 77 29 209 40 292 11 84 27 190 34 235 21 125 29
188 22 188 -19 0 -361 -91 -367 -97 -4 -5 -16 -73 -28 -153 -44 -311 -44 -325
-31 -603 6 -144 13 -275 15 -292 9 -66 26 -433 23 -474 -2 -37 -8 -47 -33 -61
-24 -13 -74 -80 -75 -100 0 -3 28 -18 63 -34 34 -16 114 -54 177 -85 63 -30
119 -55 124 -55 5 -1 11 -7 14 -15 2 -7 1 -12 -4 -10 -5 2 -38 18 -74 35 -85
41 -200 94 -205 94 -2 0 -27 13 -55 30 l-50 29 -36 -72 c-49 -98 -48 -97 -87
-83 -18 6 -34 14 -37 17 -5 6 -145 83 -188 103 -35 17 -35 40 -2 105 33 67 36
81 17 81 -7 0 -49 18 -92 39 -142 69 -233 111 -244 111 -6 0 -11 4 -11 9 0 5
-15 12 -34 15 -19 4 -36 10 -38 14 -4 9 -114 62 -128 62 -6 0 -10 5 -10 10 0
6 5 10 11 10 15 0 143 -63 147 -73 2 -4 8 -5 13 -1 5 3 21 -3 37 -14 23 -16
48 -29 72 -37 3 -1 19 -8 35 -15 17 -7 32 -14 35 -15 23 -8 49 -21 70 -35 14
-10 40 -21 58 -25 17 -3 32 -10 32 -14 0 -4 17 -13 37 -20 33 -12 38 -12 50 5
7 10 13 22 13 26 0 5 11 26 24 46 24 38 24 39 15 203 -5 90 -13 211 -19 269
-5 58 -10 127 -10 153 0 46 0 47 -49 68 -27 11 -51 26 -54 32 -4 12 32 326 53
457 7 41 14 90 16 110 3 19 9 71 14 115 13 106 14 102 -17 117 -14 7 -58 59
-97 115 -39 57 -92 133 -119 171 -30 42 -54 92 -65 131 -9 35 -24 67 -32 71
-20 10 -57 26 -102 44 -25 10 -39 23 -42 38 -3 13 -12 113 -21 223 -15 188
-52 608 -54 612 -1 1 -99 2 -218 3 -236 1 -215 -3 -403 69 -56 21 -230 148
-230 167 0 8 5 14 10 14 6 0 10 4 10 9 0 5 24 46 53 90 28 44 86 133 127 196
58 91 79 115 92 111 10 -4 26 -9 36 -12 13 -4 24 3 35 20 17 25 17 25 -18 32
-19 3 -35 10 -35 16 0 5 21 41 48 81 26 40 49 77 52 83 23 48 70 106 95 116
32 12 139 59 142 62 1 1 -5 38 -13 81 -25 137 -55 299 -59 328 -3 18 0 30 10
33 22 9 159 32 170 30 6 -2 13 -49 16 -107z m3399 -895 c58 -14 112 -29 120
-33 9 -5 30 -12 47 -15 24 -6 49 -30 114 -114 181 -231 172 -216 194 -327 l20
-100 75 -20 c41 -11 80 -23 85 -27 6 -3 28 -9 49 -13 l38 -8 -6 -46 c-3 -25
-22 -111 -42 -191 -40 -166 -84 -349 -144 -600 -67 -278 -58 -253 -85 -248
l-24 5 26 -51 c14 -28 42 -80 63 -116 20 -36 52 -92 70 -125 18 -33 55 -99 82
-146 26 -48 48 -91 48 -95 0 -5 -15 -25 -33 -44 -173 -187 -155 -158 -309
-532 -148 -362 -223 -542 -239 -570 -5 -10 -9 -22 -9 -28 0 -5 -11 -33 -24
-62 -14 -29 -27 -65 -31 -80 -14 -54 -32 -55 -150 -3 -16 8 -56 23 -87 35 -31
12 -67 29 -79 39 l-23 18 94 229 c51 126 114 281 140 344 27 63 82 199 123
302 42 103 83 200 91 217 23 44 20 66 -20 134 -20 34 -46 78 -56 97 -11 19
-52 89 -90 155 -39 66 -104 179 -146 250 -41 72 -81 140 -88 151 -11 18 -54
40 -54 28 0 -5 47 -89 154 -272 43 -73 76 -137 74 -141 -2 -5 -32 -39 -67 -77
-84 -91 -83 -89 -150 -260 -130 -334 -364 -910 -372 -919 -5 -5 -9 -16 -9 -25
0 -9 -6 -24 -13 -33 -11 -17 -15 -16 -69 2 -31 11 -72 26 -90 34 -18 8 -59 27
-90 40 -32 14 -58 30 -58 34 0 12 228 590 260 658 5 11 34 85 65 165 31 80 70
177 87 216 l30 71 -43 72 c-24 40 -87 145 -140 234 -87 147 -99 162 -128 167
l-31 5 86 130 87 129 5 274 5 274 -22 -12 c-13 -6 -24 -10 -25 -8 -14 16 -60
130 -58 141 1 4 -3 7 -8 7 -6 0 -10 5 -10 11 0 9 -14 44 -57 139 -75 167 -102
237 -95 244 2 3 14 1 26 -5 24 -12 -26 37 -64 61 -49 32 -81 63 -73 71 5 5
164 40 353 79 396 81 414 85 495 104 33 8 69 12 80 10 11 -3 67 -16 125 -30z"/>
<path d="M3158 11902 l-38 -3 1 -182 c1 -100 4 -225 8 -277 l6 -95 65 -7 c36
-5 106 -15 155 -24 50 -9 131 -22 180 -29 50 -8 132 -21 184 -30 72 -12 106
-13 149 -5 31 5 57 10 59 10 2 0 2 127 1 282 l-3 283 -30 2 c-16 1 -61 7 -100
13 -114 17 -137 20 -199 25 -32 3 -61 7 -65 9 -10 6 -119 19 -168 20 -24 1
-43 5 -43 9 0 7 -73 7 -162 -1z"/>
</g>
</svg>
