<?xml version="1.0" standalone="no"?>
<!DOCTYPE svg PUBLIC "-//W3C//DTD SVG 20010904//EN"
 "http://www.w3.org/TR/2001/REC-SVG-20010904/DTD/svg10.dtd">
<svg version="1.0" xmlns="http://www.w3.org/2000/svg"
 width="889.000000pt" height="899.000000pt" viewBox="0 0 889.000000 899.000000"
 preserveAspectRatio="xMidYMid meet">

<g transform="translate(0.000000,899.000000) scale(0.100000,-0.100000)"
fill="#000000" stroke="none">
<path d="M2065 8695 c-138 -12 -568 -69 -745 -98 -41 -7 -74 -17 -73 -22 1 -6
48 -18 105 -28 258 -44 660 -144 998 -249 303 -94 334 -107 704 -305 76 -41
168 -94 205 -117 36 -24 129 -83 206 -131 77 -48 150 -97 162 -108 23 -20 50
-39 214 -154 57 -39 117 -85 133 -102 l30 -31 -22 -28 c-12 -15 -39 -51 -59
-79 -20 -29 -39 -53 -43 -53 -4 0 -28 9 -54 21 -25 11 -111 35 -190 54 -79 18
-154 39 -166 45 -20 11 -234 46 -550 91 -63 9 -195 14 -390 14 -248 0 -322 -4
-465 -22 -225 -30 -266 -38 -492 -94 -186 -46 -448 -140 -567 -203 -27 -14
-52 -26 -56 -26 -22 0 -243 -146 -317 -209 -56 -48 -57 -66 0 -57 322 53 1282
71 1942 36 475 -25 1225 -123 1291 -168 5 -4 29 -46 52 -95 69 -147 113 -200
277 -341 44 -38 84 -73 89 -77 11 -10 -26 1 -104 30 -108 41 -439 128 -590
155 -192 35 -506 71 -830 96 -69 5 -192 16 -275 25 -281 29 -970 20 -1177 -15
-32 -6 -86 -15 -120 -20 -103 -17 -218 -43 -218 -50 0 -4 57 -10 128 -13 133
-7 467 -39 581 -57 36 -6 98 -15 136 -21 39 -6 93 -15 120 -20 72 -13 339 -48
485 -64 189 -21 443 -65 660 -115 106 -25 136 -31 265 -54 187 -34 240 -45
345 -71 36 -9 94 -23 130 -31 119 -26 194 -51 405 -136 197 -79 196 -73 6 -70
-212 5 -345 -9 -453 -47 -115 -40 -281 -129 -346 -186 l-54 -48 -51 21 c-29
12 -92 35 -141 52 -49 16 -99 38 -110 49 -62 56 -248 159 -390 216 -69 27
-220 62 -366 84 -41 7 -115 18 -165 26 -179 29 -323 46 -475 55 -85 6 -195 14
-245 20 -137 15 -568 13 -563 -2 5 -13 21 -19 263 -107 77 -27 191 -70 254
-95 63 -25 118 -46 123 -46 5 0 36 -13 71 -29 71 -33 159 -67 200 -75 39 -9
34 -21 -15 -36 -72 -21 -182 -81 -358 -195 -123 -79 -169 -119 -238 -201 l-50
-60 -84 -12 c-149 -21 -321 -90 -386 -153 -16 -16 -42 -62 -57 -102 -74 -192
-22 -443 126 -610 120 -137 438 -233 652 -197 85 15 225 61 274 91 40 25 85
83 113 146 10 24 25 43 32 43 29 0 198 -33 268 -52 41 -11 96 -24 121 -28 194
-34 730 -267 759 -330 4 -8 21 -43 38 -76 l32 -61 -38 -25 c-89 -59 -236 -129
-342 -163 -168 -54 -240 -82 -240 -96 0 -4 17 -13 38 -21 28 -10 122 -13 392
-13 195 0 367 3 381 7 22 6 28 3 37 -18 7 -14 12 -27 12 -30 0 -17 -238 -106
-365 -135 -151 -35 -478 -159 -635 -240 -129 -66 -235 -169 -304 -295 -27 -49
-68 -118 -91 -154 -56 -87 -69 -123 -99 -281 -27 -143 -31 -185 -42 -434 -4
-88 -8 -162 -9 -165 -1 -3 -5 -95 -9 -205 -16 -436 -96 -589 -388 -748 -93
-50 -185 -75 -309 -81 -184 -10 -302 -64 -349 -161 -24 -51 -22 -77 11 -119
53 -67 172 -113 382 -145 264 -41 482 -26 739 50 161 47 255 97 323 171 84 90
105 144 116 287 13 171 15 444 5 616 -6 98 -5 219 3 350 6 110 11 263 10 340
-4 322 -9 280 45 375 93 164 228 321 322 374 87 49 109 57 594 197 36 10 92
25 125 33 181 44 236 56 250 56 8 0 36 -16 61 -36 70 -53 238 -130 334 -154
47 -12 153 -39 237 -60 163 -43 243 -53 528 -70 399 -23 592 -1 733 81 l33 19
49 -41 c77 -65 159 -169 204 -258 66 -130 166 -504 166 -621 0 -71 -23 -251
-47 -360 -14 -70 -17 -131 -17 -345 0 -297 9 -345 85 -496 88 -176 137 -225
316 -317 126 -65 381 -141 546 -162 39 -5 133 -18 207 -30 106 -15 184 -20
360 -20 124 1 257 5 295 10 39 6 116 14 173 20 84 8 115 15 170 42 89 44 124
93 130 181 4 60 2 65 -28 95 -61 61 -198 81 -560 82 -251 0 -488 19 -597 46
-83 20 -230 82 -286 121 -110 74 -194 186 -255 337 -68 167 -81 269 -63 492
26 322 -32 659 -162 939 -82 176 -159 285 -308 439 l-127 130 60 70 c32 39 79
105 103 146 50 85 190 391 229 499 48 133 88 311 94 414 5 100 -12 355 -29
417 -8 33 -6 36 46 87 197 191 542 317 925 339 127 7 215 -13 354 -80 155 -74
246 -168 335 -344 46 -91 99 -255 109 -338 l8 -71 -140 -44 c-153 -48 -206
-77 -298 -167 -103 -101 -149 -268 -100 -362 47 -89 192 -140 398 -140 204 0
373 34 506 101 109 55 207 181 224 287 13 82 -39 252 -110 355 -20 30 -52 102
-75 172 -53 161 -252 580 -316 667 -43 59 -148 146 -223 186 -57 30 -168 68
-272 94 -38 9 -122 13 -270 12 -182 -1 -240 -5 -378 -27 -168 -28 -303 -67
-404 -118 -102 -51 -375 -216 -436 -262 l-59 -44 -53 86 c-87 141 -229 259
-435 364 -192 97 -358 174 -396 182 -26 6 -30 10 -24 28 20 64 27 133 23 235
-3 93 -1 113 12 117 8 2 101 27 205 55 277 76 376 129 476 257 83 105 116 190
140 363 22 161 -24 345 -124 496 -84 127 -282 297 -437 377 -72 37 -77 42
-140 139 -74 115 -197 251 -280 309 -30 22 -102 75 -160 119 -180 137 -484
291 -735 373 -267 86 -388 108 -962 170 -169 18 -880 20 -1078 2z m3428 -1433
c173 -85 306 -250 322 -399 7 -56 5 -66 -19 -107 -17 -29 -44 -56 -74 -73 -41
-24 -57 -28 -122 -27 -87 1 -123 16 -240 102 -146 106 -293 268 -354 390 l-27
53 74 34 c114 53 201 75 283 72 61 -2 83 -8 157 -45z m-723 12 c27 -8 78 -28
115 -45 57 -27 65 -34 59 -53 -29 -99 -131 -253 -220 -335 -117 -107 -229
-147 -385 -139 -124 7 -187 38 -228 110 -26 45 -31 63 -31 124 0 114 48 187
185 281 104 72 359 100 505 57z m270 -573 c0 -33 -13 -47 -55 -56 l-30 -6 28
16 c17 10 30 28 34 46 7 37 23 38 23 0z m-110 -186 c136 -19 239 -19 337 0
174 33 213 18 213 -86 0 -73 -18 -108 -87 -169 -106 -93 -239 -132 -453 -134
-133 -1 -136 -1 -207 33 -79 37 -110 65 -143 129 -29 55 -25 135 9 178 50 65
130 76 331 49z m-3666 -1424 c50 -27 147 -75 216 -106 69 -31 137 -68 152 -82
38 -36 92 -145 114 -228 12 -48 18 -110 18 -200 l1 -130 -39 -72 c-48 -90 -81
-116 -209 -161 -93 -33 -113 -37 -232 -40 -114 -3 -143 0 -230 22 -128 33
-236 87 -300 151 -101 101 -175 280 -175 425 0 97 49 238 98 281 66 58 259
129 394 145 37 4 63 13 74 25 9 10 19 19 22 19 2 0 46 -22 96 -49z m3477 -155
c166 -24 495 -148 575 -218 56 -49 88 -181 88 -363 1 -167 -12 -210 -145 -475
-84 -168 -110 -210 -157 -259 -79 -80 -116 -92 -317 -98 -152 -5 -168 -4 -310
27 -175 37 -369 99 -443 141 -88 50 -87 43 -87 434 l0 340 34 98 c18 53 50
129 70 169 l36 71 120 61 c69 34 146 65 180 72 82 16 241 16 356 0z m3712
-613 c53 -77 89 -182 94 -274 5 -79 3 -91 -21 -140 -74 -147 -224 -235 -468
-274 -282 -44 -539 7 -591 118 -42 87 1 243 91 328 95 93 138 117 276 160 268
82 253 78 476 108 114 15 115 15 143 -26z"/>
<path d="M5587 7012 c-26 -29 -22 -77 9 -101 30 -24 43 -26 77 -10 71 32 45
129 -33 129 -23 0 -43 -7 -53 -18z"/>
<path d="M4680 7063 c-84 -32 -76 -135 12 -150 32 -5 41 -1 69 26 25 26 30 37
24 59 -11 48 -64 81 -105 65z"/>
<path d="M5370 6353 c-43 -30 -189 -63 -311 -69 -141 -8 -229 6 -294 47 -51
32 -55 34 -55 19 0 -21 95 -70 168 -86 57 -13 97 -15 171 -9 167 12 361 69
361 106 0 13 -13 11 -40 -8z"/>
</g>
</svg>
